<?xml version="1.0" encoding="utf-8"?>
<!-- Svg Vector Icons : http://www.onlinewebfonts.com/icon -->
<!DOCTYPE svg PUBLIC "-//W3C//DTD SVG 1.1//EN" "http://www.w3.org/Graphics/SVG/1.1/DTD/svg11.dtd">
<svg version="1.1" xmlns="http://www.w3.org/2000/svg" xmlns:xlink="http://www.w3.org/1999/xlink" x="0px" y="0px" viewBox="0 0 256 256" enable-background="new 0 0 256 256" xml:space="preserve">
<metadata> Svg Vector Icons : http://www.onlinewebfonts.com/icon </metadata>
<g><g><g><path fill="#000000" d="M46.3,32.6c-9.9,2.6-13.7,5.8-17.9,14.2c-4.5,9.2-6.1,17.8-5,25.6c1.6,11,5.7,21,14.1,35.2l6.2,10.3l-0.4,4.6c-0.2,2.5-1,7.5-1.8,10.9c-0.8,3.5-1.6,8.7-2,11.7c-0.3,3.1-1,6.4-1.6,7.9c-1.9,4.3-5.8,9.1-10.8,13.5l-4.9,4.2l-3.5,8.7c-5.4,13.5-6.1,15.4-7.3,21.7c-0.5,3.2-1.2,6.2-1.3,6.6c-0.3,0.8,3.5,5.6,5.2,6.5c1.4,0.7,3.5-0.3,4.8-2.1c0.7-1,0.9-2.7,1-6.1c0-4.2,0.3-5.2,2.6-10.9c1.4-3.5,3.2-6.9,4-7.7c3-3.1,7-4.9,16.8-7.4c5.3-1.3,10.3-2.7,11.3-3.1c1.4-0.5,1.7-0.4,2.3,0.3c1,1.3,0.9,2.8-0.4,9.5c-0.6,3.1-1.1,6.7-1.1,8c0,4.9,6.2,14.3,16.4,25.1l4.2,4.5l6.5-0.2c6.3-0.2,6.5-0.2,7.6-1.6c0.9-1.3,1-1.6,0.3-3c-1.1-2.3-3.3-3.6-6.4-4c-2.7-0.4-3-0.6-7.5-5.4c-4.9-5.3-5.7-6.7-5.1-9.7c0.4-2.3,5.7-9.9,10.1-14.8c2.5-2.7,4.2-5.3,5.7-8.5c1.9-4.1,2.3-4.6,3.7-4.7c17.5-0.5,22.6-0.9,25.6-2l3.1-1.2l4.8,1.4c13,3.6,11.9,3.1,12.1,5.4c0.3,3.8-2.1,19-3.8,24c-1.4,4.2-1.6,5.5-1.6,11.3c0,5.9,0.1,6.8,1.2,8.1c1.1,1.4,1.3,1.4,6.8,1.4c6.3,0,6.9-0.3,6.9-3.4c0-1.6-0.4-2.4-1.6-3.4c-0.9-0.8-2.1-1.6-2.7-1.8c-2.3-0.7-0.9-4.6,6-17.8c8.9-17,10-18.2,17.5-18.2c2.6,0,5.3-0.3,6.8-0.9l2.6-0.9l3.5,2.5c3.8,2.7,7,6,7,7.2c0,1,3.7,4.3,17.6,15.5c6.5,5.3,13.2,10.7,14.8,12.1c1.7,1.4,4,3,5.3,3.6c1.2,0.5,3.4,2,4.7,3.2l2.5,2.2h5.9c5.7,0,5.9-0.1,7.5-1.6c2.1-2.1,2-3.4-0.3-5.5c-1.8-1.5-2.3-1.7-5.4-1.7h-3.5l-4.4-4.6c-9.6-9.9-14-15.3-17.6-21.7c-5.7-9.9-5.5-8.8-5.7-26.9l-0.2-15.9l1.9-3.7c2-4,5.4-7.5,9.6-9.9c2.1-1.3,3.6-1.6,8.1-2c3-0.3,5.7-0.6,6-0.8c0.2-0.2,1.6-2.3,3-4.8c1.9-3.1,2.5-4.8,2.3-5.7c-0.2-0.7-1.9-3.2-3.8-5.7c-2-2.4-3.7-5.1-4-5.8c-0.5-2-5.1-6-8.7-7.5l-3.1-1.3l0.2-5.5c0.2-5.4,0.1-5.5-1-5.4c-0.8,0.1-1.3-0.2-1.4-0.8c-0.2-0.7-1.9,0.7-6.5,5.2c-5.6,5.4-6.8,6.4-11.5,8.6c-4,1.9-6.4,3.5-10,6.8c-2.6,2.4-6.5,5.2-8.7,6.4c-3.6,2-4.2,2.1-8.3,2.1c-2.4,0-7.3-0.5-10.8-1.1c-3.5-0.6-8.9-1.4-11.9-1.7c-3-0.3-12.3-1.7-20.6-3c-22.9-3.6-24.7-3.8-36.6-3.8c-7.9,0-13.9,0.4-21.1,1.3L60.1,106l-3-1.5c-3.7-1.9-10-7.6-11.9-10.8c-3.1-5.3-7.5-21.4-7.5-27.4c0.1-6,2.9-14.9,5.7-18c2.6-2.8,9-4.8,12.8-4c2,0.4,4.3,1.9,6,3.8c1.6,1.8,4,1.5,5-0.5c1-2,1-5.7,0.1-7.6c-1-2-5.2-5.8-8-7.1C56.6,31.6,50.6,31.4,46.3,32.6z"/></g></g></g>
</svg>